<svg xmlns="http://www.w3.org/2000/svg" viewBox="0 0 24 24"><path fill="currentColor" fill-rule="evenodd" d="M 4.12,2.32 C 5.5,2.24 5.16,4.07 5.16,4.99 L 4.41,5 L 3.37,5.01 L 3.36,3.76 C 3.35,3.09 3.3,2.47 4.12,2.32 Z M 13.37,19.76 C 13.85,19.73 14.34,19.75 14.81,19.74 L 17.66,19.72 C 18.91,19.7 19.22,20.66 19.22,21.72 L 17.75,21.73 L 11.88,21.77 C 11.86,20.75 12.21,19.82 13.37,19.76 Z M 2.91,5.51 C 3.11,5.61 4.82,5.54 5.16,5.55 L 5.26,19.12 C 5.26,19.98 5.43,20.76 6.45,20.96 C 6.69,21.01 6.93,20.99 7.17,20.99 L 11.33,20.96 C 11.33,21.37 11.18,22.13 11.55,22.34 C 11.95,22.36 12.36,22.33 12.77,22.33 L 18.02,22.29 C 18.48,22.29 18.95,22.3 19.4,22.28 C 19.79,22.26 19.77,22.04 19.77,21.71 C 19.76,19.89 19.14,19.16 17.27,19.17 L 13.36,19.2 C 12.63,19.21 11.8,19.7 11.53,20.41 L 7.24,20.44 C 5.77,20.46 5.82,20 5.81,18.8 L 5.8,17.54 L 5.71,4.64 C 5.7,3.8 5.85,3.03 5.41,2.31 L 15.46,2.23 C 16.87,2.22 17.11,2.01 17.12,3.69 L 17.17,10.93 C 17.36,11.08 17.52,11.25 17.73,11.37 L 17.67,3.63 C 17.67,3.34 17.69,3.01 17.65,2.72 C 17.44,1.47 16.1,1.66 15.19,1.67 L 4.21,1.75 C 2.72,1.87 2.8,2.98 2.8,4.13 C 2.81,4.44 2.73,5.26 2.91,5.51 M 10.38,5.51 L 12.48,5.49 C 12.67,5.49 12.87,5.5 13.05,5.49 C 13.27,5.34 13.32,4.99 12.99,4.95 C 12.28,4.86 10.61,4.93 9.87,4.96 C 9.67,5.09 9.6,5.44 9.9,5.5 C 10.04,5.53 10.23,5.51 10.38,5.51 M 7.41,7.13 C 7,7.26 7.11,7.68 7.56,7.69 C 7.97,7.7 8.39,7.68 8.81,7.68 L 13.99,7.64 C 14.48,7.64 14.97,7.64 15.46,7.63 C 15.69,7.53 15.8,7.19 15.5,7.1 C 15.32,7.04 14.37,7.08 14.09,7.08 L 8.74,7.12 C 8.3,7.13 7.85,7.11 7.41,7.13 M 7.35,9.77 C 7.55,9.83 7.84,9.79 8.06,9.79 L 14.54,9.74 C 14.85,9.74 15.17,9.76 15.48,9.74 C 15.74,9.62 15.79,9.23 15.44,9.2 C 15.14,9.17 14.82,9.19 14.51,9.19 L 7.43,9.25 C 7.17,9.34 7.07,9.68 7.35,9.77 M 16.03,14.88 C 16.36,14.51 16.72,14.15 17.1,13.82 C 17.19,13.88 17.29,14 17.37,14.08 L 19.72,16.4 C 19.92,16.6 20.54,17.12 20.61,17.38 C 20.78,18 20.29,18.55 19.66,18.35 C 19.35,18.21 19.1,17.86 18.86,17.63 C 17.94,16.75 16.9,15.79 16.03,14.88 Z M 14.84,15.17 C 14.66,15.1 14,14.44 13.92,14.26 C 13.95,14.06 14.32,13.79 14.46,13.65 L 15.78,12.32 C 15.93,12.16 16.08,12 16.25,11.87 C 16.48,11.93 17.14,12.58 17.19,12.93 C 16.87,13.22 15.08,15.08 14.84,15.17 Z M 19.92,18.96 C 20.64,18.95 21.2,18.39 21.21,17.68 L 21.21,17.6 C 21.19,17.02 20.93,16.81 20.54,16.42 L 19.65,15.56 C 18.94,14.86 18.24,14.14 17.51,13.45 C 17.75,13.07 17.81,12.7 17.55,12.32 C 17.29,11.95 16.67,11.3 16.16,11.31 C 15.87,11.37 15.69,11.61 15.49,11.81 L 14.83,12.48 C 14.33,12.98 13.02,13.96 13.49,14.63 C 13.6,14.79 14.35,15.53 14.51,15.62 C 14.96,15.88 15.33,15.57 15.61,15.24 C 15.94,15.58 16.28,15.89 16.61,16.21 L 18.8,18.36 C 19.14,18.69 19.42,18.97 19.92,18.96 M 14.04,11.67 C 14.02,11.23 13.09,11.4 12.77,11.41 L 10.72,11.42 L 8.61,11.44 C 8.37,11.44 7.44,11.37 7.28,11.53 C 7.12,11.68 7.18,11.96 7.42,11.99 C 7.69,12.03 8.1,11.99 8.38,11.99 L 10.48,11.97 L 12.81,11.96 C 13.11,11.95 14.05,12.11 14.04,11.67 M 11.21,13.58 L 10.36,13.58 L 8.42,13.6 C 8.19,13.6 7.44,13.52 7.28,13.69 C 7.14,13.82 7.22,14.1 7.41,14.14 C 7.58,14.18 7.8,14.16 7.98,14.15 L 8.89,14.15 L 10.91,14.13 C 11.17,14.13 12.1,14.28 12.06,13.82 C 12.04,13.47 11.45,13.57 11.21,13.58"/></svg>