<svg xmlns="http://www.w3.org/2000/svg" viewBox="0 0 24 24"><path class="t1" fill="var(--icon-1,currentColor)" fill-rule="evenodd" d="M 6.14,13.52 C 5.73,13.62 4.82,14.51 4.64,15 C 4.4,15.62 4.78,16.3 5.44,16.48 C 5.68,16.54 5.79,16.64 5.79,16.81 C 5.79,17.22 6.25,17.6 6.88,17.68 C 7.17,17.72 7.2,17.75 7.26,17.94 C 7.42,18.48 7.83,18.82 8.32,18.82 C 8.63,18.82 8.67,18.84 8.82,19.1 C 9.27,19.9 10.18,20.01 10.73,19.34 C 11.15,18.83 11.29,18.57 11.32,18.25 C 11.37,17.77 11.1,17.25 10.76,17.19 C 10.46,17.14 10.31,16.98 10.31,16.72 C 10.31,16.26 9.85,15.71 9.45,15.71 C 9.3,15.71 9.12,15.51 9.09,15.29 C 9.03,14.82 8.6,14.54 7.95,14.54 C 7.72,14.54 7.52,14.4 7.47,14.18 C 7.33,13.68 6.74,13.38 6.14,13.52 M 6.81,6.8 C 6.77,6.84 6.73,6.9 6.73,6.92 C 6.73,6.95 6.68,7.07 6.62,7.2 C 6.48,7.5 6.41,7.65 6.26,8.01 C 6.2,8.16 6.1,8.37 6.06,8.47 C 6.01,8.57 5.97,8.67 5.97,8.7 C 5.97,8.72 5.93,8.82 5.88,8.91 C 5.83,9.01 5.79,9.11 5.79,9.13 C 5.79,9.16 5.75,9.25 5.7,9.35 C 5.65,9.45 5.56,9.63 5.51,9.76 C 5.46,9.89 5.37,10.08 5.32,10.19 C 5.28,10.3 5.19,10.48 5.14,10.59 C 5.09,10.71 5.01,10.88 4.96,10.98 C 4.83,11.28 4.69,11.6 4.61,11.74 C 4.53,11.91 4.43,12.17 4.43,12.25 C 4.43,12.29 4.54,12.42 4.66,12.55 C 4.79,12.68 4.96,12.86 5.04,12.96 C 5.21,13.16 5.13,13.17 5.8,12.87 C 6,12.78 6.05,12.77 6.49,12.77 C 7.21,12.77 7.48,12.93 7.92,13.6 C 8.07,13.83 8.05,13.83 8.53,13.88 C 8.98,13.93 9.13,14.03 9.49,14.52 C 9.58,14.64 9.66,14.76 9.66,14.78 C 9.66,14.86 9.9,15.05 10.14,15.16 C 10.57,15.35 11,15.89 11.1,16.34 C 11.11,16.39 11.18,16.48 11.25,16.54 C 12.11,17.23 12.36,18.08 11.92,18.8 C 11.78,19.04 11.89,19.2 12.33,19.44 C 13.08,19.82 13.85,19.59 14.22,18.86 C 14.31,18.68 14.32,18.68 14.92,18.66 C 15.56,18.65 15.92,18.41 16.06,17.9 C 16.16,17.57 16.17,17.56 16.59,17.56 C 17.25,17.54 17.62,17.23 17.71,16.6 C 17.78,16.16 17.84,16.08 18.1,16.08 C 18.6,16.08 19.12,15.49 19.12,14.93 C 19.12,14.47 18.97,14.28 18.17,13.68 C 17.97,13.53 17.71,13.33 17.58,13.23 C 17.45,13.13 17.29,13 17.22,12.95 C 16.86,12.71 16.51,12.46 16.23,12.26 C 16.16,12.21 16.04,12.13 15.97,12.08 C 15.9,12.03 15.79,11.95 15.72,11.9 C 15.65,11.85 15.53,11.76 15.46,11.71 C 15.39,11.66 15.28,11.59 15.22,11.54 C 15.16,11.5 15.06,11.43 15,11.39 C 14.91,11.32 14.81,11.24 14.36,10.89 C 14.26,10.81 14.03,10.65 13.66,10.39 C 13.26,10.11 12.84,9.91 12.68,9.91 C 12.55,9.91 11.98,10.17 11.84,10.3 C 11.8,10.33 11.71,10.39 11.65,10.44 C 11.58,10.48 11.43,10.57 11.31,10.65 C 11.19,10.73 11.03,10.84 10.95,10.89 C 10.87,10.94 10.77,11 10.72,11.04 C 9.48,11.84 7.93,11.49 7.57,10.33 C 7.45,9.94 7.52,9.45 7.72,9.23 C 7.76,9.19 7.79,9.13 7.79,9.11 C 7.79,8.92 8.95,7.75 9.83,7.04 C 10.14,6.79 9.63,6.67 8.97,6.84 C 8.59,6.93 8.1,6.93 7.62,6.84 C 6.98,6.71 6.9,6.71 6.81,6.8 M 12.51,6.39 C 12.34,6.42 12.14,6.47 12.07,6.51 C 11.99,6.55 11.9,6.58 11.88,6.58 C 11.83,6.58 11.46,6.76 11.15,6.94 C 10.43,7.35 8.94,8.78 8.46,9.52 C 8.14,10.01 8.37,10.53 8.93,10.63 C 9.62,10.75 10.01,10.62 10.97,9.96 C 12.05,9.22 12.26,9.12 12.78,9.15 C 13.17,9.17 13.37,9.24 13.73,9.51 C 13.81,9.57 13.93,9.66 14,9.71 C 14.07,9.76 14.19,9.84 14.26,9.89 C 14.33,9.94 14.44,10.02 14.51,10.07 C 14.58,10.12 14.7,10.2 14.77,10.25 C 14.91,10.35 15.1,10.49 15.24,10.59 C 15.35,10.67 15.74,10.96 16.12,11.25 C 16.26,11.37 16.42,11.48 16.46,11.51 C 16.51,11.54 16.64,11.64 16.76,11.73 C 16.99,11.9 17.41,12.21 18.2,12.8 C 18.84,13.27 18.85,13.27 19.25,12.78 C 19.62,12.32 19.65,12.12 19.4,11.71 C 19.37,11.65 19.33,11.58 19.33,11.55 C 19.33,11.51 19.16,11.12 19.04,10.89 C 19,10.81 18.97,10.73 18.97,10.7 C 18.97,10.67 18.93,10.57 18.88,10.48 C 18.83,10.4 18.78,10.28 18.77,10.23 C 18.74,10.13 18.59,9.8 18.49,9.61 C 18.45,9.53 18.42,9.45 18.42,9.42 C 18.42,9.39 18.38,9.29 18.33,9.2 C 18.28,9.1 18.24,9.01 18.24,8.99 C 18.24,8.96 18.2,8.86 18.15,8.76 C 18.1,8.66 18.01,8.45 17.95,8.3 C 17.89,8.15 17.8,7.96 17.76,7.89 C 17.72,7.82 17.69,7.74 17.69,7.72 C 17.69,7.69 17.64,7.56 17.58,7.43 C 17.51,7.3 17.42,7.1 17.37,6.98 C 17.24,6.69 17.23,6.68 17.13,6.62 C 17.05,6.57 17.01,6.57 16.77,6.62 C 16.29,6.72 15.28,6.65 14.72,6.49 C 14.24,6.35 13.06,6.3 12.51,6.39"/><path class="t2" fill="var(--icon-2,currentColor)" fill-rule="evenodd" d="M 19.42,4.32 C 19.36,4.35 19.19,4.44 19.04,4.5 C 18.33,4.8 17.89,5.05 17.72,5.23 C 17.5,5.46 17.5,5.52 17.71,5.94 C 17.87,6.27 17.95,6.47 18.15,6.98 C 18.21,7.14 18.32,7.41 18.41,7.6 C 18.5,7.78 18.57,7.95 18.57,7.96 C 18.57,7.97 18.66,8.17 18.77,8.39 C 19.26,9.38 19.55,10.03 19.7,10.47 C 19.81,10.79 19.98,11.21 20.23,11.79 C 20.32,11.99 20.41,12.21 20.43,12.29 C 20.55,12.68 20.87,12.73 21.53,12.45 C 21.7,12.37 21.94,12.29 22.07,12.26 C 23.02,12.03 23.31,11.51 22.98,10.66 C 22.73,10.02 22.58,9.67 22.42,9.34 C 22.16,8.81 21.89,8.21 21.89,8.16 C 21.89,8.14 21.83,7.98 21.75,7.81 C 21.67,7.65 21.56,7.41 21.51,7.28 C 21.23,6.51 21.06,6.12 20.58,5.16 C 20.21,4.41 20.06,4.25 19.75,4.25 C 19.6,4.25 19.5,4.27 19.42,4.32 M 4.04,4.27 C 3.89,4.34 3.64,4.65 3.61,4.79 C 3.59,4.84 3.51,5.03 3.43,5.21 C 3.22,5.65 2.88,6.43 2.84,6.55 C 2.83,6.6 2.75,6.79 2.66,6.97 C 2.58,7.15 2.5,7.34 2.48,7.39 C 2.46,7.44 2.39,7.61 2.31,7.77 C 2.23,7.93 2.14,8.12 2.11,8.19 C 2.09,8.26 2.01,8.44 1.94,8.59 C 1.82,8.84 1.69,9.16 1.48,9.69 C 1.43,9.8 1.33,10.02 1.25,10.19 C 0.64,11.5 0.72,11.71 2.13,12.35 C 2.32,12.44 2.5,12.52 2.52,12.54 C 2.59,12.59 2.98,12.72 3.09,12.72 C 3.28,12.72 3.59,12.53 3.59,12.41 C 3.59,12.39 3.67,12.2 3.77,11.97 C 3.87,11.75 3.96,11.53 3.98,11.48 C 3.99,11.43 4.08,11.23 4.16,11.05 C 4.25,10.86 4.32,10.7 4.32,10.69 C 4.32,10.68 4.41,10.48 4.51,10.25 C 4.61,10.03 4.69,9.82 4.69,9.79 C 4.69,9.76 4.76,9.59 4.84,9.41 C 4.92,9.23 5.02,8.99 5.06,8.87 C 5.1,8.75 5.29,8.33 5.48,7.95 C 5.67,7.56 5.82,7.24 5.82,7.23 C 5.82,7.21 5.91,7.03 6.01,6.81 C 6.11,6.6 6.27,6.27 6.35,6.08 C 6.72,5.31 6.58,5.14 4.99,4.43 C 4.51,4.22 4.23,4.17 4.04,4.27"/></svg>