<svg xmlns="http://www.w3.org/2000/svg" viewBox="0 0 24 24"><path class="t1" fill="var(--icon-1,currentColor)" fill-rule="evenodd" d="M 9.55,12.84 C 9.55,12.87 9.57,12.9 9.59,12.9 C 9.61,12.9 9.62,12.87 9.62,12.84 C 9.62,12.81 9.61,12.79 9.59,12.79 C 9.57,12.79 9.55,12.81 9.55,12.84 M 9.52,9.8 C 9.47,9.87 9.53,9.96 9.6,9.93 C 9.63,9.92 9.66,9.88 9.66,9.85 C 9.66,9.78 9.56,9.75 9.52,9.8 M 11.69,7.43 C 11.58,7.44 11.39,7.48 11.27,7.51 C 11.15,7.55 11.02,7.57 10.99,7.57 C 10.88,7.57 10.12,7.92 9.89,8.08 C 9.69,8.21 9.61,8.22 9.44,8.11 C 9.09,7.87 8.65,8.24 8.76,8.66 C 8.83,8.93 8.82,9.02 8.71,9.22 C 8.39,9.82 8.27,10.07 8.17,10.37 C 7.85,11.28 8.12,12.81 8.73,13.53 C 8.77,13.58 8.77,13.66 8.75,13.86 C 8.71,14.25 8.88,14.42 9.32,14.42 C 9.49,14.42 9.63,14.43 9.64,14.45 C 9.67,14.5 10.05,14.7 10.32,14.81 C 11.68,15.38 13.12,15.29 14.26,14.57 C 14.52,14.41 14.59,14.39 14.74,14.46 C 14.89,14.53 15,14.47 15.22,14.19 C 15.42,13.95 15.44,13.92 15.4,13.84 C 15.34,13.7 15.35,13.57 15.43,13.45 C 15.56,13.28 15.79,12.8 15.82,12.67 C 15.84,12.6 15.87,12.5 15.9,12.44 C 16.16,11.93 16.06,10.61 15.69,9.78 C 15.65,9.69 15.6,9.58 15.58,9.53 C 15.56,9.48 15.48,9.33 15.41,9.2 C 15.28,8.96 15.28,8.96 15.35,8.81 C 15.49,8.56 15.47,8.43 15.28,8.22 C 15.06,7.98 14.96,7.95 14.75,8.07 C 14.56,8.18 14.38,8.18 14.27,8.06 C 14.2,7.98 13.83,7.81 13.45,7.67 C 13.22,7.59 12.97,7.53 12.36,7.42 C 12.16,7.39 11.97,7.39 11.69,7.43 M 5.48,4.21 C 5.16,4.27 5.07,4.42 5.07,4.9 C 5.07,5.39 5.11,5.45 5.39,5.5 C 5.71,5.56 6.06,5.9 6.19,6.28 C 6.25,6.45 6.25,9.22 6.19,9.44 C 6.11,9.75 5.46,10.31 5.2,10.31 C 5.07,10.31 5.05,10.45 5.07,11.49 C 5.09,12.57 5.09,12.56 5.29,12.57 C 5.53,12.57 6.1,13.06 6.19,13.34 C 6.32,13.77 6.25,16.31 6.1,16.57 C 5.88,16.94 5.57,17.19 5.33,17.19 C 5.11,17.19 5.07,17.26 5.07,17.74 C 5.07,18.2 5.11,18.28 5.38,18.39 C 5.62,18.49 18.54,18.46 18.73,18.36 C 19.07,18.19 19.04,18.77 19.05,12.17 C 19.06,5.36 19.04,4.57 18.9,4.38 C 18.83,4.3 18.74,4.23 18.66,4.21 C 18.49,4.16 5.73,4.16 5.48,4.21 M 5.13,3.28 C 4.4,3.52 4.04,4.11 4.04,5.01 C 4.04,5.42 3.99,5.54 3.81,5.54 C 3.56,5.54 3.16,5.85 2.97,6.19 C 2.83,6.46 2.81,9.33 2.96,9.61 C 3.12,9.92 3.35,10.11 3.71,10.24 C 4.14,10.39 4.12,10.32 4.1,11.46 C 4.09,12.52 4.08,12.57 3.83,12.57 C 3.57,12.57 3.2,12.86 2.96,13.25 C 2.82,13.48 2.8,16.31 2.93,16.59 C 3.11,16.95 3.46,17.23 3.84,17.32 C 4.01,17.35 4.03,17.41 4.07,17.88 C 4.14,18.56 4.25,18.77 4.68,19.06 C 5.2,19.4 4.55,19.37 12.08,19.37 C 19.8,19.37 19.04,19.42 19.55,18.91 C 20.06,18.39 20.02,19.12 20.02,11.22 C 20.03,4.52 20.03,4.52 19.93,4.25 C 19.76,3.78 19.33,3.37 18.88,3.26 C 18.52,3.17 5.38,3.19 5.13,3.28 M 2.97,0.91 C 2.34,1.1 1.87,1.6 1.7,2.24 C 1.59,2.68 1.59,20.07 1.71,20.41 C 1.99,21.25 2.69,21.7 3.73,21.7 C 4.1,21.7 4.16,21.75 4.2,22.04 C 4.26,22.52 4.46,22.93 4.71,23.05 C 4.79,23.1 5.05,23.11 6.18,23.11 C 7.55,23.11 7.55,23.11 7.69,22.98 C 7.89,22.8 8.18,22.16 8.18,21.91 C 8.18,21.88 8.22,21.83 8.26,21.79 C 8.36,21.69 15.47,21.64 15.64,21.73 C 15.74,21.79 15.8,21.89 15.8,22 C 15.8,22.04 15.84,22.16 15.89,22.27 C 15.94,22.37 16,22.52 16.03,22.58 C 16.09,22.76 16.36,23.02 16.53,23.07 C 16.76,23.13 19.22,23.12 19.34,23.06 C 19.59,22.93 19.83,22.41 19.83,22.03 C 19.83,21.73 19.87,21.72 20.6,21.67 C 21.08,21.63 21.15,21.62 21.31,21.53 C 21.9,21.18 22.22,20.81 22.33,20.34 C 22.4,20.02 22.39,2.73 22.32,2.33 C 22.23,1.85 21.75,1.26 21.25,1.02 C 21,0.9 21,0.9 12.03,0.89 C 7.09,0.89 3.02,0.9 2.97,0.91"/><path class="t2" fill="var(--icon-2,currentColor)" fill-rule="evenodd" d="M 3.96,13.53 C 3.78,13.64 3.76,13.74 3.75,14.86 C 3.73,16.35 3.7,16.3 4.55,16.3 C 5.38,16.3 5.33,16.39 5.3,14.84 C 5.28,13.4 5.34,13.51 4.57,13.5 C 4.23,13.49 3.99,13.5 3.96,13.53 M 12.79,13.14 C 12.44,13.29 11.92,13.32 11.64,13.21 C 11.07,12.99 10.86,13.02 10.59,13.35 C 10.32,13.67 10.33,13.72 10.75,13.93 C 11.67,14.39 12.98,14.35 13.57,13.84 C 13.81,13.65 13.69,13.25 13.35,13.09 C 13.15,12.99 13.14,12.99 12.79,13.14 M 11.78,10.3 C 11.14,10.52 10.87,10.97 11.03,11.57 C 11.12,11.93 11.65,12.28 12.12,12.29 C 12.57,12.29 13.14,11.9 13.19,11.55 C 13.3,10.86 13.1,10.59 12.27,10.31 C 12.01,10.22 11.99,10.22 11.78,10.3 M 9.62,9.9 C 9.59,9.92 9.53,9.93 9.49,9.92 C 9.15,9.83 8.91,11.21 9.11,12.06 C 9.31,12.9 9.6,13.04 10.06,12.52 C 10.28,12.27 10.28,12.26 10.16,12 C 9.97,11.6 9.96,11.13 10.13,10.38 C 10.17,10.18 9.77,9.81 9.62,9.9 M 14.23,9.94 C 13.91,10.19 13.88,10.3 14.04,10.65 C 14.21,11.02 14.2,11.56 14.02,11.9 C 13.9,12.13 13.92,12.25 14.16,12.5 C 14.53,12.89 14.6,12.87 14.85,12.36 C 15.19,11.67 15.22,10.78 14.93,10.19 C 14.7,9.72 14.57,9.68 14.23,9.94 M 11.38,8.41 C 11.07,8.51 10.74,8.65 10.58,8.77 C 10.3,8.95 10.7,9.57 11.04,9.48 C 11.57,9.35 12.53,9.36 12.86,9.5 C 13.17,9.63 13.74,9.02 13.54,8.77 C 13.24,8.4 12.04,8.21 11.38,8.41 M 4.16,6.42 C 3.79,6.48 3.78,6.55 3.78,7.93 C 3.78,8.64 3.79,9.08 3.82,9.13 C 3.97,9.41 5.03,9.42 5.26,9.15 C 5.32,9.07 5.31,6.75 5.25,6.61 C 5.17,6.46 4.57,6.35 4.16,6.42"/></svg>